<svg width="160" height="161" viewBox="0 0 160 161" fill="none" xmlns="http://www.w3.org/2000/svg">
<path d="M127.338 53.5057C122.439 44.8383 115.251 37.6919 106.564 32.8508C97.8772 28.0098 88.0262 25.6613 78.0928 26.0631C68.1593 26.4649 58.5273 29.6016 50.254 35.1287C41.9808 40.6559 35.3861 48.3598 31.1939 57.395L34.7821 59.066C38.6677 50.6916 44.7801 43.5511 52.4482 38.4282C60.1164 33.3053 69.0439 30.3981 78.2509 30.0256C87.4579 29.6532 96.5883 31.8299 104.64 36.3169C112.692 40.8039 119.354 47.4277 123.894 55.4612L127.338 53.5057Z" fill="#03F295"/>
<path d="M60.3557 130.673C70.9506 134.868 82.5979 135.605 93.6373 132.777C104.677 129.949 114.545 123.701 121.835 114.924L118.794 112.387C112.037 120.523 102.891 126.313 92.6586 128.935C82.4265 131.556 71.6311 130.873 61.8111 126.985L60.3557 130.673Z" fill="#03F295"/>
<path d="M36.1695 111.698C40.4298 117.7 45.866 122.769 52.1463 126.595L54.2022 123.206C48.3812 119.66 43.3426 114.961 39.3938 109.398L36.1695 111.698Z" fill="#03F295"/>
<path d="M34.8516 80.2482C34.8516 55.1092 55.1788 34.7319 80.256 34.7319C105.333 34.7319 125.66 55.1092 125.66 80.2482C125.66 105.387 105.333 125.765 80.256 125.765C55.1788 125.765 34.8516 105.387 34.8516 80.2482Z" fill="#03F295"/>
<path d="M69.8594 101.667V58.9883L101.79 80.3275L69.8594 101.667Z" fill="white"/>
</svg>
